<svg version="1.1" id="Layer_1" xmlns="http://www.w3.org/2000/svg" xmlns:xlink="http://www.w3.org/1999/xlink" x="0px" y="0px" viewBox="0 0 1200 1200" enable-background="new 0 0 1200 1200" xml:space="preserve">
<g>
	<path fill="#5B4737" d="M864.94,418.921c3.479-51.604-11.958-103.595-42.558-145.212c-25.906-35.233-69.104-72.105-114.368-78.632&#10;&#9;&#9;c0.124-2.863,2.441-46.462,3.356-65.404c0.918-18.968,3.801-40.346,0.992-59.194c-2.249-15.091-20.291-17.335-32.595-18.081&#10;&#9;&#9;c-22.596-1.37-57.401-7.895-75.887,8.835c-7.19,6.508-6.033,13.324-6.111,22.173c-0.238,26.894-4.853,96.037-5.275,103.764&#10;&#9;&#9;c-35.706-4.976-71.752,2.616-103.393,19.703c-22.101,11.935-41.972,27.482-60.638,44.185&#10;&#9;&#9;c-17.68,15.821-36.853,33.238-44.412,56.348c-20.935,2.677-46.829,14.24-55.32,34.853c-8.944,21.716-2.102,47.862,15.139,62.98&#10;&#9;&#9;c6.067,5.32,12.406,10.173,18.927,14.709c-2.798,26.12-4.968,52.279-8.897,78.269c-1.962,12.977-8.117,33.317-2.647,47.058&#10;&#9;&#9;c-13.909,96.395-30.473,192.784-39.505,289.786c-2.468,26.505-4.28,53.072-5.428,79.667c-1.107,25.653,2.347,50.669-0.33,76.458&#10;&#9;&#9;c-2.47,23.8-8.961,49.076-7.581,73.064c0.779,13.536,23.723,24.383,34.277,30.81c69.178,42.127,155.558,56.108,235.479,54.64&#10;&#9;&#9;c12.832-0.236,35.244,3.098,44.442-7.88c6.149-7.339,8.15-18.295,11.157-27.102c4.833-14.154,9.664-28.308,14.494-42.462&#10;&#9;&#9;c8.783-25.736,15.164-55.448,28.449-79.193c10.936-19.545,23.213-38.037,32.06-58.73c10.71-25.051,17.004-51.276,28.578-76.098&#10;&#9;&#9;c9.539-20.458,18.18-41.302,25.977-62.485c18.288-49.684,32.656-100.646,47.99-151.286c0.174-0.575,0.16-1.104,0.028-1.588&#10;&#9;&#9;c4.248-4.529,6.919-9.983,9.596-16.086c5.191-11.831,11.379-22.94,17.557-34.287c13.955-25.633,28.326-51.466,40.329-78.1&#10;&#9;&#9;c8.09-2.351,13.889-5.501,20.148-14.135c6.707-9.252,12.592-20.821,12.806-32.49C902.147,447.592,881.169,429.515,864.94,418.921z&#10;&#9;&#9; M416.741,129.55c-0.608-12.638,17.767-16.063,29.12-16.801c-2.144-10.997-7.745-32.339,7.988-34.83&#10;&#9;&#9;c6.849-1.085,12.404,2.862,16.587,7.817c3.838,4.548,9.057,9.759,11.36,15.523c6.09-2.347,12.57-3.53,19.122-3.841&#10;&#9;&#9;c4.636-0.22,10.406-0.063,13.58,3.904c5.887,7.356-2.556,17.536-10.281,24.087c8.406,5.594,15.652,14.701,11.509,25.224&#10;&#9;&#9;c-4.938,12.543-21.384,6.064-32.262,1.643c-2.855,5.551-8.664,9.336-13.321,13.304c-5.532,4.713-11.022,10.872-19.06,9.834&#10;&#9;&#9;c-14.978-1.934-12.576-18.544-8.191-29.74C432.786,146.891,417.227,139.645,416.741,129.55z M394.029,205.132&#10;&#9;&#9;c6.547-9.072,11.325-18.487,14.011-29.514c1.078-4.425,8.128-3.504,8.149,1.005c0.061,13.316,6.654,29.826,22.626,27.907&#10;&#9;&#9;c6.322-0.759,5.865,7.017,0.439,8.278c-4.529,1.052-10.386,8.33-13.716,11.455c-4.034,3.785-7.93,7.699-11.778,11.671&#10;&#9;&#9;c-2.087,2.154-8.538,1.824-7.892-2.305c1.04-6.649-9.532-18.36-13.238-23.371C391.018,208.076,392.144,206.095,394.029,205.132z&#10;&#9;&#9; M365.886,154.924c4.37,0.344,8.761,0.937,13.145,1.387c0.293,5.271-0.067,9.959,4.806,12.91c1.244,0.753,3.139,0.74,3.838-0.752&#10;&#9;&#9;c1.843-3.929,1.601-7.617,1.03-11.581c4.073,0.022,8.124-0.31,12.129-1.367c2.568-0.678,2.674-3.778,0.68-5.228&#10;&#9;&#9;c-4.497-3.269-8.986-2.858-14.25-2.713c-0.659-4.059-1.382-8.101-2.206-12.149c-0.607-2.98-7.086-4.759-7.055-0.778&#10;&#9;&#9;c0.034,4.426,0.236,8.831,0.494,13.236c-4.178,0.167-8.355,0.327-12.542,0.353C361.47,148.272,361.523,154.58,365.886,154.924z&#10;&#9;&#9; M751.906,1048.864c3.322,10.429-13.682,15.703-20.743,17.479c1.09-0.274,9.725,10.796,10.412,12.125&#10;&#9;&#9;c2.628,5.085,2.729,10.453-2.77,13.602c-9.411,5.39-22.475-0.157-31.05-6.263c-3.598,9.92-11.969,19.265-23.21,17.296&#10;&#9;&#9;c-16.714-2.928-10.824-20.213-4.699-31.371c-4.417-0.673-8.685-2.619-13.013-4.276c-4.89-1.872-9.148-5.421-8.584-11.128&#10;&#9;&#9;c1.245-12.586,21.042-12.992,32.227-12.375c0.157-6.577,1.909-13.087,3.979-19.298c1.765-5.295,4.284-10.082,10.759-8.715&#10;&#9;&#9;c11.62,2.324,19.236,26.765,19.835,27.046C730.301,1045.451,748.276,1037.472,751.906,1048.864z M715.703,999.503&#10;&#9;&#9;c0.713-8.026-2.535-12.094-5.98-18.329c-2.905-5.258-1.518-6.189,1.834-11.716c3.465-5.713,5.084-13.279,6.234-19.772&#10;&#9;&#9;c0.663-3.744,7.182-3.673,8.339-0.342c3.701,10.659,9.284,24.97,22.928,23.996c3.199-0.229,6.82,4.089,3.04,6.19&#10;&#9;&#9;c-11.118,6.18-20.834,14.092-29.596,23.275C720.017,1005.409,715.416,1002.733,715.703,999.503z M773.56,1010.931&#10;&#9;&#9;c-4.452-1.788-9.228-0.347-13.768,0.373c-0.741,0.117-3.774-6.78-4.78-9.958c-1.268-4.011-9.073-3.909-8.08,0.837&#10;&#9;&#9;c0.733,3.508,1.296,7.029,1.612,10.587c-2.934,0.313-5.872,0.592-8.822,0.786c-4.74,0.312-5.161,7.659-0.083,7.539&#10;&#9;&#9;c2.889-0.068,5.924-0.081,9.01-0.143c-0.154,3.017-0.257,6.101,0.783,8.677c1.003,2.482,6.356,3.457,7.41,0.472&#10;&#9;&#9;c1.065-3.015,1.478-6.298,1.498-9.653c5.842-0.547,11.547-1.671,16.501-4.142C777.388,1015.036,775.459,1011.693,773.56,1010.931z"/>
	<path fill="#EFDF6E" d="M413.271,224.316c-2.885-6.04-8.322-12.173-12.016-16.516c3.703-4.632,6.741-9.538,9.208-14.741&#10;&#9;&#9;c2.745,8.369,7.906,15.382,15.767,18.464C421.572,215.276,417.229,219.948,413.271,224.316z M450.382,144.633&#10;&#9;&#9;c0.361,4.556-1.505,9.093-1.306,13.613c0.959,20.66,22.735-4.122,27.185-10.849c6.955-10.512,19.435,9.672,28.568,0.729&#10;&#9;&#9;c9.395-9.2-13.112-14.983-13.677-20.539c-0.409-4.021,4.442-6.946,6.744-9.511c0.944-1.051,8.99-9.292,5.65-10.524&#10;&#9;&#9;c-8.536-3.146-17.709,3.944-25.479,1.301c-7.271-2.473-12.081-13.026-16.596-18.604c-0.969-1.197-1.996-2.417-3.386-3.077&#10;&#9;&#9;c-5.318-2.523-3.449,26.874-7.601,30.631c-2.932,2.63-7.772,2.74-13.695,4.641c-2.873,0.922-13.266,4.061-8.622,8.685&#10;&#9;&#9;C433.732,136.664,449.731,136.41,450.382,144.633z M733.92,1050.258c-8.328,0.64-14.455,0.635-18.805-7.691&#10;&#9;&#9;c-0.62-1.187-9.511-20.936-10.863-18.981c-4.431,6.404-5.384,15.277-5.976,22.858c-0.643,8.234-29.167,9.578-29.703,9.738&#10;&#9;&#9;c9.021,6.844,23.403,5.565,18.454,19.497c-1.783,5.02-9.383,16.758-0.458,19.172c8.875,2.399,12.558-10.832,15.376-16.545&#10;&#9;&#9;c1.374-2.787,6.983-2.385,7.421,0.688c0.48,3.37,24.109,10.995,24.237,4.917c0.028-1.492-0.932-2.792-1.859-3.954&#10;&#9;&#9;c-3.117-3.91-11.323-9.918-10.12-15.423c1.035-4.724,6.976-4.733,11.911-5.895c3.011-0.709,5.65-1.846,6.571-4.744&#10;&#9;&#9;C741.382,1049.862,737.401,1049.99,733.92,1050.258z M739.079,979.323c-7.067-2.529-12.15-8.628-15.968-15.671&#10;&#9;&#9;c-1.706,4.898-3.93,9.588-6.632,14.146c3.428,4.284,5.595,8.989,6.524,14.18C728.069,987.361,733.424,983.188,739.079,979.323z"/>
	<path fill="#C5E7E2" d="M788.951,371.288c-28.423-11.369-57.724-20.654-87.655-27.06c1.33-28.551,2.635-57.103,3.913-85.656&#10;&#9;&#9;c7.53,0.791,14.955,1.348,22.153,1.638c9.792,0.394,24.835-4.097,21.019-17.463c-3.622-12.691-30.376-17.335-40.968-20.441&#10;&#9;&#9;c-0.198-0.058-0.396-0.077-0.594-0.102c0.256-5.823,0.522-11.646,0.775-17.469c15.66,7.998,32.319,13.893,47.294,23.549&#10;&#9;&#9;c20.19,13.017,38.168,29.07,53.206,47.814c30.234,37.684,44.812,83.597,46.45,131.175c-6.967-6.282-15.649-11.205-23.294-15.717&#10;&#9;&#9;C817.757,383.592,803.483,377.101,788.951,371.288z M731.794,248.473c9.169-5.556-7.393-9.474-10.794-10.874&#10;&#9;&#9;c-4.826-1.985-9.722-3.794-14.614-5.613c-0.205,4.652-0.411,9.305-0.618,13.957C705.728,246.848,729.568,249.821,731.794,248.473z&#10;&#9;&#9; M852.819,420.772c-8.142-4.5-15.352-11.264-23.224-16.044c-12.762-7.748-26.283-14.249-40.016-20.075&#10;&#9;&#9;c-28.981-12.294-59.547-20.231-88.673-32.059c-1.357,29.013-2.731,58.026-4.134,87.038&#10;&#9;&#9;C748.952,445.638,806.051,447.589,852.819,420.772z M392.743,306.716c14.039-26.252,38.335-46.395,62.909-63.64&#10;&#9;&#9;c5.189-3.641,10.389-7.153,15.508-10.566c33.645-22.431,70.814-37.469,111.71-36.335c3.033,0.084,6.072,0.318,9.107,0.554&#10;&#9;&#9;c-0.218,3.966-0.438,7.932-0.657,11.898c-0.001,0.006-6.571,3.366-6.996,6.353c-0.602,4.227,2.742,7.284,6.143,9.082&#10;&#9;&#9;c-1.758,31.543-3.513,63.086-5.289,94.628C571.921,314.215,442.202,301.47,392.743,306.716z M474.996,278.811&#10;&#9;&#9;c9.439-6.841,16.397-16.34,26.252-22.779c10.744-7.019,22.692-9.954,34.9-13.368c4.331-1.212,5.038-8.261,0.006-8.877&#10;&#9;&#9;c-27.575-3.373-58.57,14.911-67.91,40.94C466.891,278.496,472.232,280.813,474.996,278.811z M392.112,424.516&#10;&#9;&#9;c19.717,12.353,41.799,19.265,63.791,26.74c26.03,8.847,52.34,16.852,78.895,23.971c13.572,3.639,27.209,7.026,40.894,10.198&#10;&#9;&#9;c0.512-8.829,1.027-17.659,1.537-26.489c-4.969-1.149-9.932-2.313-14.89-3.513c-73.032-17.666-151.998-41.673-201.813-101.72&#10;&#9;&#9;c-3.227-3.889,2.48-6.356,5.476-3.62c59.772,54.57,135.003,78.181,211.903,96.949c0.352-6.115,0.692-12.231,1.042-18.346&#10;&#9;&#9;c-2.612-0.77-5.232-1.53-7.829-2.321c-36.011-10.966-71.26-24.65-104.621-42.146c-32.823-17.214-63.36-36.508-81.56-69.665&#10;&#9;&#9;c-13.035,3.608-25.409,8.924-35.858,17.794c-14.041,11.918-17.622,34.586-9.037,51.15&#10;&#9;&#9;C349.705,402.143,374.923,413.746,392.112,424.516z M394.475,313.813c12.263,13.375,23.618,26.952,39.058,37.059&#10;&#9;&#9;c17.066,11.171,35.071,20.889,53.542,29.518c29.805,13.922,60.863,25.688,92.617,35.185c1.153-20.224,4.474-78.909,4.986-88.026&#10;&#9;&#9;c-14.014,0.326-75.568-9.016-92.187-10.516C459.734,314.077,427.264,313.583,394.475,313.813z M893.318,462.596&#10;&#9;&#9;c-2.528-15.349-18.69-29.438-31.841-38.478c-0.074,0.006-0.147,0.013-0.22,0.015c-0.003,0.001-0.008,0.002-0.011,0.003&#10;&#9;&#9;c-19.209,20.804-52.736,26.415-79.516,29.15c-28.338,2.893-57.033,2.382-85.594-0.543c-0.267,5.506-0.533,11.011-0.802,16.516&#10;&#9;&#9;c5.892,0.72,60.347,5.209,81.693,4.874c24.962-0.392,49.2-4.372,73.954-6.689c3.392-0.318,6.551,5.061,2.343,6.181&#10;&#9;&#9;c-45.734,12.174-96.614,11.362-143.429,7.48c-5.029-0.417-10.049-0.925-15.066-1.455c-0.442,9.037-0.87,18.075-1.316,27.112&#10;&#9;&#9;c50.246,6.742,103.751,12.743,153.87,4.28c12.564-2.122,25.73-3.304,33.77-14.004C888.171,487.698,895.313,474.714,893.318,462.596&#10;&#9;&#9;z M310.445,1048.871c-0.726,6.693-0.642,13.431,2.631,17.411c10.139,12.324,30.78,21.449,44.754,28.496&#10;&#9;&#9;c69.814,35.206,153.058,45.831,230.42,41.575c7.046-0.387,13.742-0.298,17.766-6.66c1.48-2.339,2.507-5.183,3.395-8.081&#10;&#9;&#9;C507.927,1127.16,391.532,1116.166,310.445,1048.871z M857.199,517.445c-12.121,18.905-44.382,79.275-49.783,89.64&#10;&#9;&#9;c-5.571,10.694-8.571,23.492-17.432,32.176c-3.13,3.068-1.4,8.186,1.925,9.19c-12.828,40.209-25.081,80.65-39.115,120.456&#10;&#9;&#9;c-6.711,19.034-40.708,96.047-48.586,116.408c-8.185,21.156-13.761,43.239-24.474,63.375&#10;&#9;&#9;c-10.187,19.145-23.994,37.378-31.088,57.973c-8.293,24.07-16.582,48.14-24.869,72.212c-3.784,10.992-7.567,21.984-11.35,32.977&#10;&#9;&#9;c-104.881-0.993-208.95-10.833-298.589-70.227c-0.677-0.448,1.649-30.544,3.023-42.381c1.263-10.888,2.338-21.819,2.616-32.783&#10;&#9;&#9;c0.337-13.321-1.936-26.334-2.105-39.582c-0.321-25.235,2.251-50.896,4.26-76.035c7.964-99.622,29.367-197.942,37.303-297.461&#10;&#9;&#9;c2.099-0.161,4.189-1.405,3.94-3.532c-4.806-41.03,7.651-82.39,8.669-123.92c35.419,22.363,76.103,35.344,116.156,47.582&#10;&#9;&#9;c28.805,8.801,57.955,16.479,87.341,23.112c-1.307,22.522-2.614,45.044-3.924,67.566c-18.447-5.44-38.245-8.757-56.14-12.681&#10;&#9;&#9;c-19.759-4.333-39.834-8.393-60.004-10.296c-22.027-2.078-55.552-3.238-71.092,15.856c-10.447,12.834-10.098,36.585-12.914,52.137&#10;&#9;&#9;c-4.334,23.925-8.49,47.886-12.104,71.932c-3.82,25.411-7.044,50.92-9.208,76.529c-2.569,30.394-3.112,60.475-6.711,90.764&#10;&#9;&#9;c-3.442,28.967-0.17,59.048-0.656,88.163c-0.198,11.797-0.881,23.539-2.397,35.244c-2.014,15.55-6.053,32.784-0.988,48.491&#10;&#9;&#9;c4.899,15.197,17.911,28.018,31.193,36.267c22.011,13.672,52.423,19.481,77.383,25.436c28.91,6.898,58.384,11.482,88.02,13.741&#10;&#9;&#9;c25.37,1.934,49.837,1.386,67.541-19.317c15.769-18.439,24.044-43.83,34.694-65.338c12.476-25.194,25.181-50.296,36.002-76.262&#10;&#9;&#9;c11.654-27.964,21.206-56.935,31.971-85.27c19.882-52.332,41.33-104.101,55.913-158.22c6.04-22.415,11.257-44.356,19.8-65.936&#10;&#9;&#9;c7.074-17.868,6.651-35.937-9.377-48.664c-21.582-17.137-54.738-17.754-81.169-17.23c0.703-14.047,1.414-28.094,2.11-42.141&#10;&#9;&#9;C746.939,524.589,804.284,529.622,857.199,517.445z M393.148,516.77c1.495-7.257,3.144-22.137,9.92-24.963&#10;&#9;&#9;c5.573-2.324,10.433,2.173,14.961,4.554c9.829,5.168,19.955,9.741,30.241,13.922c15.353,6.241,37.96,17.962,54.644,13.624&#10;&#9;&#9;c2.803-0.729,5.75-5.61,2.536-7.749c-12.582-8.37-28.23-11.057-42.369-16.155c-13.377-4.825-26.46-10.306-39.342-16.326&#10;&#9;&#9;c-8.899-4.159-18.375-10.981-26.523-2.374c-8.226,8.689-11.48,23.724-13.488,35.23C382.693,522.453,392.083,521.941,393.148,516.77&#10;&#9;&#9;z"/>
	<path fill="#E2B48F" d="M351.3,973.015c-1.62,12.482-5.346,26.752-2.583,39.304c5.259,23.897,30.855,35.859,51.402,42.85&#10;&#9;&#9;c26.629,9.06,53.947,16.093,81.645,20.998c15.057,2.667,75.517,9.557,89.554,6.058c26.606-6.632,35.894-35.825,46.514-57.808&#10;&#9;&#9;c11.627-24.07,24.034-47.759,35.299-72.005c4.47-9.621,8.665-19.393,12.752-29.221c-6.95,4.799-44.481,10.806-55.505,11.082&#10;&#9;&#9;c-14.484,0.364-54.128-3.158-57.191-22.594c-1.224-7.769,1.122-17.726,1.521-25.629c-20.708,4.536-38.974-22.977-37.138-41.668&#10;&#9;&#9;c2.06-20.982,21.201-30.066,39.927-31.485c0.449-12.474,0.953-24.938,1.628-37.373c2.591-47.785,5.315-95.563,8.068-143.34&#10;&#9;&#9;c-12.526-3.779-24.844-8.313-36.918-13.768c-4.545-2.054-0.357-7.486,3.552-6.271c11.206,3.484,22.54,6.705,33.972,9.548&#10;&#9;&#9;c0.686-11.87,1.366-23.74,2.056-35.61c-21.971,4.447-43.897,9.18-65.899,13.199c-25.874,4.725-53.279,9.314-79.393,3.651&#10;&#9;&#9;c-14.117-3.061-30.586-9.218-39.31-21.418c-5.345,59.249-20.167,117.487-24.878,176.896c-1.244,15.692-5.915,82.403-6.752,100.155&#10;&#9;&#9;c-1.247,26.441,0.366,52.953-0.007,79.408C353.45,949.697,352.809,961.383,351.3,973.015z M579.045,995.836&#10;&#9;&#9;c15.324,12.517,17.127,34.875,5.665,50.561c-12.72,17.408-43.288,19.095-58.348,3.123c-12.383-13.133-8.235-35.673,3.698-49.316&#10;&#9;&#9;C542.082,986.46,564.751,984.16,579.045,995.836z M521.952,904.673c19.25,6.801,27.438,27.745,18.102,45.849&#10;&#9;&#9;c-9.275,17.987-32.69,30.191-51.549,19.436c-15.454-8.813-26.29-30.661-18.959-47.557c0.985-2.269,2.296-4.448,3.968-6.494&#10;&#9;&#9;C484.552,902.399,506.115,899.078,521.952,904.673z M432.354,745.13c10.741-14.639,33.026-19.974,49.437-12.535&#10;&#9;&#9;c17.859,8.096,26.422,27.97,19.668,46.416c-8.021,21.907-34.725,28.069-54.827,19.219&#10;&#9;&#9;C426.527,789.379,419.246,762.994,432.354,745.13z M411.822,829.93c17.85-6.55,42.552-3.171,52.925,14.45&#10;&#9;&#9;c11.375,19.322-6.611,43.206-25.142,49.132c-18.045,5.769-41.069-1.811-47.619-20.371c-0.314-0.89-0.59-1.806-0.827-2.747&#10;&#9;&#9;C387.094,854.189,395.932,835.761,411.822,829.93z M428.128,966.103c20.987,3.041,41.934,17.941,36.697,41.574&#10;&#9;&#9;c-5.054,22.81-22.319,28.933-43.618,27.922c-18.344-0.871-36.295-15.585-38.01-34.288&#10;&#9;&#9;C380.62,973.203,402.914,962.451,428.128,966.103z M406.527,588.606c7.812,4.799,16.605,7.85,25.738,8.744&#10;&#9;&#9;c23.067,2.258,46.302-1.592,68.907-5.905c11.738-2.24,23.411-4.807,35.067-7.435c5.595-1.262,27.797-7.705,30.765-6.95&#10;&#9;&#9;c-12.964-3.298-25.903-7.679-38.406-10.638c-18.332-4.339-36.784-8.135-55.371-11.207c-21.742-3.594-46.443-9.031-67.676-0.339&#10;&#9;&#9;c-5.998,2.456-17.05,7.998-17.518,15.355c-0.072,1.136,0.108,2.315,0.598,3.534C391.334,580.48,400.712,585.034,406.527,588.606z&#10;&#9;&#9; M759.506,656.063c2.686-10.391,5.721-20.091,9.928-29.994c5.682-13.372,9.664-27.503-2.801-38.57&#10;&#9;&#9;c-18.912-16.788-51.12-17.415-76.315-16.875c-0.74,14.735-1.466,29.47-2.213,44.205c-0.311,6.137-0.66,12.268-0.978,18.403&#10;&#9;&#9;c9.348,0.06,18.664,0.424,27.914,1.569c2.222,0.275,3.992,4.598,1.275,5.445c-9.655,3.008-19.684,4.829-29.87,5.801&#10;&#9;&#9;c-4.708,89.332-10.164,178.545-16.655,267.747c16.029-39.698,29.742-80.599,44.946-120.428&#10;&#9;&#9;C732.068,747.964,747.338,703.133,759.506,656.063z" style="fill: rgb(92, 183, 127);"/>
	<path fill="#FFFFFF" d="M601.881,210.957c0.441-9.45,0.907-18.899,1.34-28.349c1.563-34.048,4.328-68.44,4.378-102.595&#10;&#9;&#9;c5.348,3.477,11.571,5.125,18.44,6.913c22.582,5.88,55.169,11.954,76.677-0.652c-0.106,7.859-8.602,157.956-7.81,158.084&#10;&#9;&#9;c-17.654-2.852-34.95-7.17-52.151-12.022C631.086,229.043,601.075,228.234,601.881,210.957z M684.578,438.103&#10;&#9;&#9;c1.509-27.804,7.927-148.364,9.653-180.838c-32.403-4.438-66-13.695-93.177-28.824c-2.993,63.542-6.12,127.077-9.372,190.605&#10;&#9;&#9;C622.223,427.574,653.341,433.975,684.578,438.103z M656.205,80.729c10.444,0.406,31.994,1.752,40.684-4.039&#10;&#9;&#9;c10.004-6.668-1.825-10.981-7.22-12.095c-19.471-4.02-40.594-4.267-60.348-2.911c-5.475,0.375-17.557,3.242-20.925,8.742&#10;&#9;&#9;c5.967,3.383,13.58,3.81,20.078,5.26C637.75,77.756,646.71,80.36,656.205,80.729z M580.807,624.733&#10;&#9;&#9;c14.771,3.264,29.684,5.85,44.683,7.479c16.081,1.748,32.276,1.3,48.421,1.091c1.131-20.758,2.257-41.516,3.398-62.273&#10;&#9;&#9;c-31.786,1.277-63.088,6.345-94.244,12.426C582.649,591.221,581.138,618.737,580.807,624.733z M588.109,488.237&#10;&#9;&#9;c30.709,6.786,61.673,12.38,92.823,16.775c0.491-8.935,0.983-17.87,1.472-26.806c-31.228-3.848-62.206-9.647-92.925-16.486&#10;&#9;&#9;C589.02,470.559,588.571,479.398,588.109,488.237z M683.868,451.343c-31.433-3.98-62.603-10.776-92.861-19.202&#10;&#9;&#9;c-0.305,5.93-0.612,11.861-0.919,17.791c30.688,7.213,61.666,13.373,92.897,17.696&#10;&#9;&#9;C683.281,462.199,683.572,456.771,683.868,451.343z M583.863,568.435c2.806,1.049,5.56,2.165,8.245,3.366&#10;&#9;&#9;c28.335-5.642,56.937-10.323,85.804-11.79c0.813-14.779,1.622-29.558,2.434-44.337c-2.005-0.279-64.069-10.133-92.812-16.306&#10;&#9;&#9;C586.326,522.39,585.092,545.412,583.863,568.435z M673.172,646.845c-17.246,0.483-34.688-1.05-51.337-3.149&#10;&#9;&#9;c-14.139-1.784-28.018-4.422-41.656-7.905c-5.191,92.724-11.284,185.312-18.075,277.913c-0.003,0.044-0.019,0.081-0.024,0.126&#10;&#9;&#9;c16.326,8.53,34.251,12.011,52.669,10.996c14.158-0.779,32.265-2.804,45.774-8.327c3.25-45.946,3.335-92.389,5.689-138.415&#10;&#9;&#9;C668.452,734.334,670.798,690.589,673.172,646.845z"/>
</g>
</svg>